<svg height='100px' width='100px'  fill="#3a178b" xmlns="http://www.w3.org/2000/svg" xmlns:xlink="http://www.w3.org/1999/xlink" xml:space="preserve" style="shape-rendering:geometricPrecision;text-rendering:geometricPrecision;image-rendering:optimizeQuality;" viewBox="0 0 6827 6827" x="0px" y="0px" fill-rule="evenodd" clip-rule="evenodd"><defs><style type="text/css">
   
    .fil2 {fill:none}
    .fil0 {fill:#3a178b}
    .fil1 {fill:#3a178b;fill-rule:nonzero}
   
  </style></defs><g><g><path class="fil0" d="M2901 970l0 3635 -44 3 -73 4 0 1c-39,3 -78,6 -117,10l0 -3654c0,-65 52,-117 117,-117 65,0 117,52 117,117z"></path><path class="fil1" d="M2706 2221l0 -1251c0,-43 35,-78 78,-78 11,0 22,2 32,7l1773 624 0 0c41,14 62,59 48,100 -9,25 -30,43 -54,50l-1773 624 0 0c-41,14 -85,-7 -100,-48 -3,-9 -5,-18 -4,-27z"></path><path class="fil0" d="M1685 5783c444,118 1055,191 1729,191 674,0 1285,-73 1729,-191 475,-126 769,-317 769,-541 0,-225 -294,-415 -769,-541 -444,-118 -1055,-191 -1729,-191 -189,0 -374,6 -551,17 0,135 0,271 0,406 87,8 167,28 229,57 102,47 165,122 165,212 0,91 -63,165 -165,212 -81,37 -190,60 -310,60 -119,0 -229,-23 -310,-60 -102,-47 -165,-122 -165,-212 0,-91 63,-165 165,-212 63,-29 301,-49 391,-57 0,-135 0,-271 0,-406 -390,31 -895,99 -1177,174 -475,126 -769,317 -769,541 0,225 294,415 769,541z"></path></g></g><rect class="fil2" width="6827" height="6827"></rect></svg>