<svg height='100px' width='100px'  fill="#ffffff" xmlns="http://www.w3.org/2000/svg" xmlns:xlink="http://www.w3.org/1999/xlink" version="1.1" x="0px" y="0px" viewBox="0 0 33 33" enable-background="new 0 0 33 33" xml:space="preserve"><path d="M16.5,28C22.842,28,28,22.841,28,16.5S22.842,5,16.5,5S5,10.159,5,16.5S10.158,28,16.5,28z M16.5,7  c5.238,0,9.5,4.262,9.5,9.5S21.738,26,16.5,26S7,21.738,7,16.5S11.262,7,16.5,7z"></path><path d="M17.799,23.136c0.6,0.569,1.549,0.547,2.121-0.053c0.57-0.601,0.547-1.55-0.053-2.121l-4.69-4.462l4.69-4.462  c0.6-0.571,0.623-1.521,0.053-2.121c-0.295-0.31-0.691-0.466-1.087-0.466c-0.372,0-0.743,0.137-1.034,0.413l-5.832,5.549  C11.669,15.696,11.5,16.089,11.5,16.5s0.169,0.804,0.467,1.087L17.799,23.136z"></path></svg>