<svg height='100px' width='100px'  fill="#3cc194" xmlns="http://www.w3.org/2000/svg" xmlns:xlink="http://www.w3.org/1999/xlink" version="1.1" x="0px" y="0px" viewBox="0 0 64 64" style="enable-background:new 0 0 64 64;" xml:space="preserve"><g><polygon points="18,36.303 18,33.427 16,33.027 16,35.928  "></polygon><polygon points="22,37.053 22,34.227 20,33.827 20,36.678  "></polygon><circle cx="42" cy="46.007" r="1"></circle><path d="M24,34.627v2.801l1.422,0.267c-0.305-0.908-0.468-1.861-0.444-2.827l0.001-0.045L24,34.627z"></path><circle cx="51" cy="48.007" r="1"></circle><path d="M12.099,35.196L14,35.553v-2.926L13.366,32.5L5,25.007H3v1l9.068,8.237C12.082,34.561,12.081,34.88,12.099,35.196z"></path><path d="M43.806,14.108l9.522,3.007l0.247-0.495c1.473-2.945,3.334-5.659,5.544-8.089l-2.297-0.626l4.828-4.138L60.35,2.249   l-5.857,5.02l-4.626-1.262h-0.67c-2.207,0-4.191,1.227-5.179,3.2c-0.618,1.236-0.773,2.654-0.438,3.993L43.806,14.108z"></path><path d="M32.857,29.347l-7.996-2.665l-0.654,2.615l23.55,6.34l-0.051-0.308c-0.482-2.893-0.193-5.874,0.837-8.621   c1.057-2.819,2.859-5.305,5.211-7.187l0.157-0.125l-16.7-5.274c-2.247,4.372-3.671,9.066-4.218,13.995L32.857,29.347z"></path><path d="M50.417,27.411c-0.806,2.148-1.094,4.457-0.852,6.731L57,36.62v-0.355c0-0.914,0.112-1.829,0.334-2.719   c0.376-1.503,1.042-2.89,1.956-4.096l-8.438-3.069C50.696,26.718,50.548,27.061,50.417,27.411z"></path><path d="M36.802,10.728l0.223-0.371c-7.957,1.569-15.402,5.501-21.173,11.214l15.309,5.103   C31.952,21.009,33.848,15.65,36.802,10.728z"></path><path d="M58.014,52.027l0.184-0.153c1.823-1.519,2.856-3.766,2.84-6.114l-21.656-6.591c-0.169,0.228-0.377,0.508-0.599,0.81   c-1.386,1.881-3.607,3.021-5.941,3.051l-0.11,0.002c-0.032,0-0.065,0.001-0.099,0.001c-2.413,0-4.655-1.163-6.06-3.088   l-14.303-2.682c0.552,5.708,1.988,11.258,4.303,16.562c-0.3-0.135-0.555-0.335-0.86-0.587c-0.661-0.548-1.484-1.229-3.052-1.229   c-1.568,0-2.392,0.682-3.054,1.229c-0.561,0.464-0.931,0.771-1.778,0.771c-0.847,0-1.217-0.307-1.776-0.771   C5.39,52.689,4.567,52.007,3,52.007v2c0.846,0,1.216,0.307,1.775,0.77c0.661,0.549,1.484,1.23,3.052,1.23   c1.568,0,2.392-0.682,3.054-1.229c0.561-0.464,0.931-0.771,1.778-0.771c0.847,0,1.217,0.307,1.776,0.771   c0.661,0.548,1.484,1.229,3.052,1.229c1.568,0,2.392-0.682,3.054-1.229c0.561-0.464,0.931-0.771,1.777-0.771   c0.849,0,1.219,0.307,1.779,0.771c0.662,0.548,1.486,1.229,3.055,1.229s2.392-0.682,3.054-1.229   c0.561-0.464,0.931-0.771,1.779-0.771c0.848,0,1.218,0.307,1.778,0.771c0.662,0.548,1.486,1.229,3.055,1.229   s2.393-0.682,3.055-1.229c0.561-0.464,0.932-0.771,1.78-0.771c0.848,0,1.218,0.307,1.778,0.771   c0.662,0.548,1.485,1.229,3.054,1.229c1.569,0,2.394-0.682,3.056-1.229c0.561-0.464,0.932-0.771,1.78-0.771   c0.851,0,1.222,0.307,1.783,0.771c0.662,0.548,1.486,1.229,3.056,1.229s2.395-0.682,3.057-1.229   c0.562-0.464,0.933-0.771,1.783-0.771v-2c-1.569,0-2.395,0.682-3.057,1.229c-0.562,0.464-0.933,0.771-1.783,0.771   c-0.459,0-0.776-0.095-1.061-0.25c0.181-0.105,0.362-0.203,0.543-0.313C56.498,53.102,57.295,52.626,58.014,52.027z M51,45.007   c1.654,0,3,1.346,3,3s-1.346,3-3,3s-3-1.346-3-3S49.346,45.007,51,45.007z M42,43.007c1.654,0,3,1.346,3,3s-1.346,3-3,3   s-3-1.346-3-3S40.346,43.007,42,43.007z"></path><path d="M56.16,59.007c-0.85,0-1.221-0.307-1.782-0.771c-0.662-0.548-1.486-1.229-3.057-1.229c-1.569,0-2.394,0.682-3.056,1.229   c-0.561,0.464-0.932,0.771-1.78,0.771c-0.848,0-1.218-0.307-1.778-0.771c-0.662-0.548-1.485-1.229-3.054-1.229   c-1.569,0-2.394,0.682-3.056,1.229c-0.561,0.464-0.931,0.771-1.779,0.771s-1.219-0.307-1.779-0.771   c-0.662-0.548-1.485-1.229-3.054-1.229s-2.393,0.682-3.055,1.229c-0.561,0.464-0.931,0.771-1.778,0.771   c-0.849,0-1.219-0.307-1.779-0.771c-0.662-0.548-1.486-1.229-3.055-1.229c-1.567,0-2.391,0.682-3.053,1.229   c-0.561,0.464-0.931,0.771-1.778,0.771c-0.847,0-1.217-0.307-1.776-0.771c-0.661-0.548-1.484-1.229-3.052-1.229   c-1.568,0-2.392,0.682-3.054,1.229c-0.561,0.464-0.931,0.771-1.778,0.771c-0.847,0-1.217-0.307-1.776-0.771   C5.39,57.689,4.567,57.007,3,57.007v2c0.846,0,1.216,0.307,1.775,0.77c0.661,0.549,1.484,1.23,3.052,1.23   c1.568,0,2.392-0.682,3.054-1.229c0.561-0.464,0.931-0.771,1.778-0.771c0.847,0,1.217,0.307,1.776,0.771   c0.661,0.548,1.484,1.229,3.052,1.229c1.568,0,2.392-0.682,3.054-1.229c0.561-0.464,0.931-0.771,1.777-0.771   c0.849,0,1.219,0.307,1.779,0.771c0.662,0.548,1.486,1.229,3.055,1.229s2.392-0.682,3.054-1.229   c0.561-0.464,0.931-0.771,1.779-0.771c0.848,0,1.218,0.307,1.778,0.771c0.662,0.548,1.486,1.229,3.055,1.229   s2.393-0.682,3.055-1.229c0.561-0.464,0.932-0.771,1.78-0.771c0.848,0,1.218,0.307,1.778,0.771   c0.662,0.548,1.485,1.229,3.054,1.229c1.569,0,2.394-0.682,3.056-1.229c0.561-0.464,0.932-0.771,1.78-0.771   c0.851,0,1.222,0.307,1.783,0.771c0.662,0.548,1.486,1.229,3.056,1.229s2.395-0.682,3.057-1.229   c0.562-0.464,0.933-0.771,1.783-0.771v-2c-1.569,0-2.395,0.682-3.057,1.229C57.382,58.701,57.011,59.007,56.16,59.007z"></path></g></svg>