<svg height='100px' width='100px'  fill="#ffffff" xmlns="http://www.w3.org/2000/svg" xmlns:xlink="http://www.w3.org/1999/xlink" version="1.1" x="0px" y="0px" viewBox="0 0 64 64" enable-background="new 0 0 64 64" xml:space="preserve"><g><path d="M61.813,31.285c1.107-1.221,1-3.09-0.24-4.174L34.24,3.197C33,2.111,31.012,2.135,29.798,3.248L2.374,28.387   c-1.216,1.114-1.272,2.979-0.133,4.165l0.688,0.717c1.141,1.187,2.986,1.329,4.116,0.315l2.05-1.834v26.87   c0,1.649,1.336,2.982,2.983,2.982h10.69c1.647,0,2.981-1.333,2.981-2.982V39.821h13.635V58.62   c-0.023,1.646,1.156,2.982,2.803,2.982h11.328c1.65,0,2.986-1.336,2.986-2.984V32.129c0,0,0.563,0.494,1.262,1.108   c0.699,0.612,2.162,0.121,3.271-1.099L61.813,31.285z"></path></g></svg>