<svg height='100px' width='100px'  fill="#3a178b" xmlns="http://www.w3.org/2000/svg" data-name="for nounproject final" viewBox="0 0 48 48" x="0px" y="0px"><title>Sport_glyph</title><path d="M17.71,43.58c-.23.79-.5,1.81-.74,2.9l-2.2.02c-.22-1.11-.48-2.14-.69-2.93a6.967,6.967,0,0,0,1.83.25A7.167,7.167,0,0,0,17.71,43.58Z"></path><path d="M21.56,36.67a5.633,5.633,0,0,1-2.9,4.93.836.836,0,0,0-.23.12,5.571,5.571,0,0,1-5.03,0,.9.9,0,0,0-.24-.12,5.648,5.648,0,1,1,8.4-4.93Z"></path><path d="M16.135,41.857a19.975,19.975,0,0,0,2.6-.3,5.645,5.645,0,1,0-5.523.076A11.336,11.336,0,0,0,16.135,41.857Z"></path><path d="M28.471,27.905s-3.75-2.277-12.407-2.767C7.693,24.663,1.6,27.328.917,28.606.275,29.814,1.4,37.143,8.3,40.011c0,0,.871.41,1.765.757a7.152,7.152,0,1,1,11.628.1,9.3,9.3,0,0,0,2.544-1.2c3.187-2.083,4.87-5.119,6.713-8.393.515-.915,2.349-4.218,4.72-8.5L32.7,20.982Z"></path><path d="M47.24,1.75l-2.2-1L33.478,19.7l2.914,1.755C39.822,15.255,44.136,7.433,47.24,1.75Z"></path></svg>