<svg height='100px' width='100px'  fill="#ffffff" xmlns:x="http://ns.adobe.com/Extensibility/1.0/" xmlns:i="http://ns.adobe.com/AdobeIllustrator/10.0/" xmlns:graph="http://ns.adobe.com/Graphs/1.0/" xmlns="http://www.w3.org/2000/svg" xmlns:xlink="http://www.w3.org/1999/xlink" version="1.1" x="0px" y="0px" viewBox="0 0 100 100" style="enable-background:new 0 0 100 100;" xml:space="preserve"><g><g i:extraneous="self"><path d="M78.2,97.5c-5.2,0-10-2-13.7-5.7L50,77.4L35.5,91.8c-3.7,3.7-8.5,5.7-13.7,5.7c-5.2,0-10-2-13.7-5.7    c-7.5-7.5-7.5-19.8,0-27.4L22.6,50L8.2,35.5C0.6,28,0.6,15.7,8.2,8.2c7.5-7.5,19.8-7.5,27.4,0L50,22.6L64.5,8.2    c7.5-7.5,19.8-7.5,27.4,0c7.5,7.5,7.5,19.8,0,27.4L77.4,50l14.5,14.5c7.5,7.5,7.5,19.8,0,27.4C88.2,95.5,83.3,97.5,78.2,97.5z     M50,66.6c1.1,0,2.3,0.4,3.2,1.3l17.6,17.6c2,2,4.6,3.1,7.4,3.1c2.8,0,5.4-1.1,7.4-3.1c4.1-4.1,4.1-10.7,0-14.7L67.9,53.2    c-1.7-1.7-1.7-4.6,0-6.3l17.6-17.6c4.1-4.1,4.1-10.7,0-14.7c-4.1-4.1-10.7-4.1-14.7,0L53.2,32.1c-1.7,1.7-4.6,1.7-6.3,0L29.2,14.5    c-4.1-4.1-10.7-4.1-14.7,0c-4.1,4.1-4.1,10.7,0,14.7l17.6,17.6c1.7,1.7,1.7,4.6,0,6.3L14.5,70.8c-4.1,4.1-4.1,10.7,0,14.7    c2,2,4.6,3.1,7.4,3.1s5.4-1.1,7.4-3.1l17.6-17.6C47.7,67,48.9,66.6,50,66.6z"></path></g></g></svg>