<svg fill="#FFFFFF" xmlns="http://www.w3.org/2000/svg" xmlns:xlink="http://www.w3.org/1999/xlink" version="1.1" x="0px" y="0px" viewBox="0 0 100 100" enable-background="new 0 0 100 100" xml:space="preserve"><path d="M69.568,84.192H30.434c-0.541,0-0.979,0.438-0.979,0.979v8.851c0,0.541,0.438,0.979,0.979,0.979h39.135  c0.54,0,0.978-0.438,0.978-0.979v-8.851C70.546,84.63,70.108,84.192,69.568,84.192z"></path><path d="M88.408,10.519c-2.779-2.103-6.683-2.528-11.634-1.292c-0.003-1.233-0.021-2.346-0.049-3.277C76.709,5.42,76.276,5,75.747,5  H24.254c-0.529,0-0.962,0.42-0.978,0.949c-0.028,0.931-0.046,2.044-0.048,3.276c-4.952-1.235-8.855-0.811-11.636,1.292  c-2.897,2.192-4.146,5.989-3.515,10.691C9.432,31.31,19.175,45.065,33.391,51.708c2.4,3.371,5.366,6.208,9,8.218v0.62  c-1.359,0.615-2.314,1.979-2.314,3.562v0.112c0,1.686,1.085,3.116,2.586,3.665v1.698c0,0,0,0,0,0.001  c-1.64,3.22-4.271,7.322-8.042,10.201c-0.333,0.255-0.467,0.693-0.333,1.091s0.507,0.665,0.927,0.665h29.572  c0.419,0,0.791-0.268,0.926-0.665s0-0.836-0.333-1.091c-3.767-2.875-6.398-6.983-8.041-10.207v-1.693  c1.501-0.549,2.586-1.979,2.586-3.665v-0.112c0-1.582-0.955-2.945-2.313-3.561v-0.621c3.635-2.01,6.603-4.848,9.003-8.22  c14.214-6.645,23.954-20.398,25.309-30.498C92.554,16.506,91.305,12.71,88.408,10.519z M14.089,20.403  c-0.189-1.414-0.29-3.948,1.163-5.048c1.428-1.08,4.36-0.974,8.128,0.223c0.372,7.517,1.536,17.146,4.7,25.776  C20.193,35.189,14.94,26.749,14.089,20.403z M62.175,24.978l-5.905,5.757l1.393,8.13c0.017,0.093-0.022,0.188-0.099,0.243  c-0.043,0.032-0.095,0.048-0.146,0.048c-0.04,0-0.08-0.01-0.115-0.029L50,35.29l-7.301,3.838c-0.083,0.044-0.186,0.037-0.263-0.019  c-0.077-0.056-0.115-0.15-0.099-0.243l1.395-8.13l-5.907-5.757c-0.068-0.066-0.092-0.165-0.063-0.255  c0.03-0.09,0.108-0.156,0.202-0.169l8.163-1.187l3.651-7.396c0.083-0.17,0.363-0.17,0.446,0l3.651,7.396l8.163,1.187  c0.093,0.013,0.171,0.079,0.201,0.169C62.267,24.813,62.242,24.912,62.175,24.978z M85.912,20.402  c-0.852,6.345-6.101,14.783-13.986,20.947c3.162-8.629,4.326-18.256,4.696-25.772c3.768-1.196,6.698-1.302,8.126-0.221  C86.202,16.455,86.102,18.989,85.912,20.402z"></path></svg>