<svg fill="#FFFFFF" xmlns="http://www.w3.org/2000/svg" xmlns:xlink="http://www.w3.org/1999/xlink" version="1.1" x="0px" y="0px" viewBox="0 0 100 100" enable-background="new 0 0 100 100" xml:space="preserve"><path d="M65.003,13.312c-0.627,0-1.134,0.509-1.134,1.135v0.188c0,0-9.898,3.215-16.14,0c0,0,3.342,14.563,16.14,15.225v38.673  c0,0.627,0.507,1.135,1.134,1.135c0.626,0,1.135-0.508,1.135-1.135V14.447C66.138,13.82,65.629,13.312,65.003,13.312z"></path><path d="M68.029,54.181v11.041c3.2,0.412,4.776,1.676,4.776,3.17c0,1.828-3.495,3.312-7.803,3.312s-7.801-1.483-7.801-3.312  c0-1.494,1.573-2.758,4.774-3.17V53.307c-3.807-0.426-7.821-0.659-11.978-0.659c-24.022,0-43.497,7.62-43.497,17.021  c0,9.401,19.475,17.021,43.497,17.021c24.023,0,43.498-7.62,43.498-17.021C93.497,62.787,83.051,56.862,68.029,54.181z"></path></svg>