<svg height='100px' width='100px'  fill="#d6d6d6" xmlns="http://www.w3.org/2000/svg" viewBox="0 0 48 48" x="0px" y="0px"><title>Travel vol.1</title><g data-name="Layer 15"><path d="M8.58594,14.19727a5.94182,5.94182,0,0,0,5.84649-4.9375H44.35156a1,1,0,0,0,0-2H14.43243a5.93467,5.93467,0,1,0-5.84649,6.9375Zm0-9.875a3.9375,3.9375,0,1,1-3.9375,3.9375A3.94227,3.94227,0,0,1,8.58594,4.32227Z"></path><path d="M39.41406,33.80273a5.94162,5.94162,0,0,0-5.84656,4.9375H3.64844a1,1,0,0,0,0,2H33.5675a5.9347,5.9347,0,1,0,5.84656-6.9375Zm0,9.875a3.9375,3.9375,0,1,1,3.9375-3.9375A3.94227,3.94227,0,0,1,39.41406,43.67773Z"></path><path d="M44.35156,23.05225H30.3465a5.93017,5.93017,0,0,0-11.693,0H3.64844a1.00024,1.00024,0,0,0,0,2.00048H18.65356a5.9303,5.9303,0,0,0,11.69288,0H44.35156a1.00024,1.00024,0,0,0,0-2.00048ZM24.5,27.98926a3.93726,3.93726,0,1,1,3.9375-3.937A3.94217,3.94217,0,0,1,24.5,27.98926Z"></path></g></svg>