<svg height='100px' width='100px'  fill="#3a178b" xmlns="http://www.w3.org/2000/svg" xmlns:xlink="http://www.w3.org/1999/xlink" xml:space="preserve" version="1.1" style="shape-rendering:geometricPrecision;text-rendering:geometricPrecision;image-rendering:optimizeQuality;" viewBox="0 0 847 847" x="0px" y="0px" fill-rule="evenodd" clip-rule="evenodd"><defs><style type="text/css">
   
    .fil0 {fill:#3a178b}
   
  </style></defs><g><path class="fil0" d="M423 824c-221,0 -400,-179 -400,-401 0,-221 179,-400 400,-400 222,0 401,179 401,400 0,222 -179,401 -401,401zm140 -50c-40,10 -81,15 -121,17 -6,4 -13,7 -20,10 48,0 96,-9 141,-27zm-368 -50c2,-18 10,-36 18,-51 -20,-44 -41,-89 -61,-133 -32,-15 -60,-34 -80,-61 -8,9 -12,21 -16,33 21,84 70,159 139,212zm-146 -253c3,-5 7,-11 12,-16 -5,-56 0,-93 18,-147 -2,-10 -4,-19 -5,-29 -25,61 -33,127 -25,192zm145 -193c33,-40 70,-78 109,-114 -7,-21 -7,-47 -6,-70 -26,1 -53,6 -78,12 -50,32 -91,75 -121,126 -2,20 -2,40 1,60 30,-13 63,-20 95,-14zm96 -207c4,0 9,0 14,0 13,-6 26,-11 40,-15 -19,4 -37,9 -54,15zm220 -15c-3,0 -7,0 -11,0 26,16 48,37 65,61 45,15 87,36 125,62 5,-4 10,-7 15,-8 -51,-57 -119,-97 -194,-115zm173 146c-38,-26 -80,-47 -124,-62 -27,18 -53,37 -78,57 11,45 22,90 35,135 43,12 92,32 125,63 29,-20 57,-40 85,-63 -6,-46 -20,-90 -43,-130zm55 150c-28,23 -57,44 -87,64 -3,47 -9,96 -22,142 14,24 32,52 53,71 29,-16 55,-35 78,-59 19,-50 31,-105 26,-159 -13,-22 -28,-42 -48,-59zm-126 222c-45,18 -95,24 -143,27 -22,36 -48,70 -76,102l50 65c50,-3 101,-11 149,-26 28,-29 54,-61 74,-96 -22,-20 -40,-47 -54,-72zm-119 -237c-13,-45 -24,-89 -35,-134 -46,-7 -92,-15 -138,-23 -39,35 -75,73 -108,114 13,39 25,79 36,119 48,10 97,19 146,27 27,-40 61,-74 99,-103zm-319 196c20,43 40,87 61,130 45,11 92,21 138,27 29,-31 54,-65 76,-101 -21,-41 -40,-83 -58,-126 -49,-8 -98,-17 -147,-27 -23,33 -47,65 -70,97z"></path></g></svg>