<svg height='100px' width='100px'  fill="#3a178b" xmlns="http://www.w3.org/2000/svg" xmlns:xlink="http://www.w3.org/1999/xlink" version="1.1" x="0px" y="0px" viewBox="0 0 100 100" enable-background="new 0 0 100 100" xml:space="preserve"><g><path d="M88.1,70c-2-0.4-3.8-2.4-5.2-5.3c6.3-6.7,10.4-14.2,11.6-21.4c0.3,2.2,0.5,4.4,0.5,6.7c0,6.9-1.6,13.5-4.4,19.3   C89.9,70,89,70.2,88.1,70z"></path><path d="M76.5,45.3c0.3,6.3,0.6,11.7,3.3,18.9c-2.1,2.1-4.5,4.1-7,6c-3.5-7.6-8.6-16.5-14.6-25.5C51.4,34.2,44.2,25,38,18.5   c-4.4-4.5-7.4-6.8-9.5-7.9C34.8,7.1,42.2,5.1,50,5.1c4.5,0,8.8,0.7,12.9,1.9c5.2,5.9,10.7,13.3,12.3,23.8   C76.1,36.6,76.3,41.2,76.5,45.3z"></path><path d="M79.2,45.1c-0.2-4.1-0.4-8.8-1.3-14.7c-1.4-9.2-5.5-16-9.9-21.6c9.8,4.3,17.8,11.9,22.5,21.4c4.5,9.4,0.8,21.5-8.5,31.9   C79.7,55.8,79.4,51,79.2,45.1z"></path><path d="M36.1,20.3c6.1,6.4,13.2,15.5,20,25.8c6,9.1,11.1,18.1,14.6,25.6c-2.4,1.6-4.9,3.1-7.5,4.4c-0.4,0.2-0.7,0.4-1.1,0.5   c-3.2-5.5-9.1-8-16.4-11.1c-1.5-0.7-3.1-1.3-4.8-2.1L39.8,63c-9.7-4.3-27.8-12.4-32.4-27.6c3.3-9.5,9.6-17.6,17.9-23   C26.1,12.2,29.2,13.2,36.1,20.3z"></path><path d="M62.2,89.2c2-3,2.3-6.5,0.9-10.2c0.4-0.2,0.8-0.4,1.2-0.5c2.6-1.3,5.1-2.8,7.4-4.3c0.1,0.1,0.1,0.3,0.2,0.4   c3.9,9.2,3.5,12.4,3,13c-5.6,3.7-12,6.2-18.9,7.1C58.4,93.3,60.7,91.5,62.2,89.2z"></path><path d="M6.2,39.7c6.4,14.1,23.2,21.6,32.5,25.8l0.9,0.4c1.7,0.8,3.3,1.4,4.9,2.1c7,3,12.2,5.2,15,9.8c-20.9,9.1-42.4,6.2-49.5-7   c-3.2-6.2-5-13.2-5-20.7C5,46.5,5.4,43,6.2,39.7z"></path><path d="M73.9,72.6c2.5-1.8,4.9-3.8,7-5.9c1.7,3.2,4,5.3,6.6,5.9c0.4,0.1,0.8,0.1,1.2,0.1c0,0,0,0,0.1,0c-2.9,4.9-6.6,9.2-11,12.7   c-0.1-2.4-1-6.1-3.5-11.9C74.2,73.3,74,73,73.9,72.6z"></path><path d="M60.7,80.2c1,2.8,0.8,5.3-0.7,7.6c-3.1,4.8-10.8,7.2-13.6,7.1c-11-0.9-20.9-5.7-28.3-13.1c5,2.5,11.1,3.8,17.7,3.8   C43.7,85.6,52.3,83.8,60.7,80.2z"></path></g></svg>