<svg height='100px' width='100px'  fill="#3a178b" xmlns:dc="http://purl.org/dc/elements/1.1/" xmlns:cc="http://creativecommons.org/ns#" xmlns:rdf="http://www.w3.org/1999/02/22-rdf-syntax-ns#" xmlns:svg="http://www.w3.org/2000/svg" xmlns="http://www.w3.org/2000/svg" xmlns:sodipodi="http://sodipodi.sourceforge.net/DTD/sodipodi-0.dtd" xmlns:inkscape="http://www.inkscape.org/namespaces/inkscape" viewBox="0 0 16.933333 16.933334" version="1.1" x="0px" y="0px"><g transform="translate(0,-280.06665)"><path style="display:inline;opacity:1;fill:#3a178b;fill-opacity:1;stroke:none;stroke-width:0.5291667;stroke-linecap:round;stroke-linejoin:round;stroke-miterlimit:4;stroke-dasharray:none;stroke-dashoffset:0;stroke-opacity:1" d="m 11.067064,283.20737 a 8.2614734,8.2614734 0 0 0 -1.5890503,0.21859 c 0.3437017,0.94112 0.8887383,1.79618 1.5973183,2.50476 0.70557,0.70557 1.556446,1.24871 2.49287,1.59266 a 8.2614734,8.2614734 0 0 0 -0.04754,-4.03954 8.2614734,8.2614734 0 0 0 -2.453595,-0.27647 z m -2.0996141,0.36432 a 8.2614734,8.2614734 0 0 0 -3.4214964,2.04122 8.2614734,8.2614734 0 0 0 -2.0474195,3.41839 l 0.02273,0.008 c 1.0216756,0.36968 1.9493895,0.95927 2.7176627,1.72754 0.767453,0.76745 1.3567516,1.69415 1.7265094,2.71456 l 0.00466,0.0129 a 8.2614734,8.2614734 0 0 0 3.4173609,-2.03967 8.2614734,8.2614734 0 0 0 2.046904,-3.41685 l -0.0186,-0.007 c -1.020416,-0.36976 -1.947111,-0.95906 -2.714564,-1.72651 -0.7682735,-0.76827 -1.3583817,-1.69598 -1.7280602,-2.71766 l -0.00569,-0.0155 z m -0.3126422,3.38687 a 0.26460979,0.26460979 0 0 1 0.1901692,0.0801 l 0.3741367,0.37414 0.3741368,-0.37414 a 0.26460979,0.26460979 0 0 1 0.181901,-0.0801 0.26460979,0.26460979 0 0 1 0.1922383,0.45424 l -0.3741393,0.37414 0.3741393,0.37413 a 0.2647406,0.2647406 0 0 1 -0.3741393,0.37466 l -0.3741368,-0.37466 -0.3741367,0.37414 0.3741367,0.37465 A 0.26460979,0.26460979 0 1 1 8.8449769,289.284 l -0.3741367,-0.37465 -0.3746553,0.37465 0.3741367,0.37414 a 0.26460979,0.26460979 0 1 1 -0.3741367,0.37414 l -0.3741367,-0.37414 -0.3741367,0.37414 A 0.26460979,0.26460979 0 1 1 6.9737721,289.65814 L 7.3479115,289.284 6.9737721,288.90986 a 0.26460979,0.26460979 0 0 1 0.1844861,-0.45475 0.26460979,0.26460979 0 0 1 0.1896533,0.0806 l 0.3741367,0.37413 0.3746527,-0.37465 -0.3746527,-0.37414 a 0.26460979,0.26460979 0 0 1 0.1844834,-0.45423 0.26460979,0.26460979 0 0 1 0.1896533,0.0801 l 0.3746553,0.37413 0.3741367,-0.37413 -0.3746553,-0.37414 a 0.26460979,0.26460979 0 0 1 0.1844861,-0.45424 z M 3.364691,289.546 a 8.2614734,8.2614734 0 0 0 0.04806,4.038 8.2614734,8.2614734 0 0 0 4.0467813,0.0574 c -0.343797,-0.93927 -0.8873517,-1.79273 -1.5947338,-2.50011 -0.707382,-0.70737 -1.5608696,-1.25145 -2.5001065,-1.59525 z"></path></g></svg>