<svg height='100px' width='100px'  fill="#ffffff" xmlns="http://www.w3.org/2000/svg" xmlns:xlink="http://www.w3.org/1999/xlink" version="1.1" x="0px" y="0px" viewBox="0 0 100 100" enable-background="new 0 0 100 100" xml:space="preserve"><g><path fill="none" d="M81.129,37.831H18.87c-1.877,0-3.397,1.376-3.397,3.075v42.532c0,1.697,1.52,3.07,3.397,3.07h62.26   c1.878,0,3.397-1.373,3.397-3.07V40.906C84.526,39.207,83.007,37.831,81.129,37.831z M37.897,80.711H21.425V63.855h16.472V80.711z    M37.897,59.993H21.425V43.137h16.472V59.993z M58.634,80.711H42.162V63.855h16.471V80.711z M58.634,59.993H42.162V43.137h16.471   V59.993z M80.141,80.711H63.67V63.855h16.471V80.711z M80.141,59.993H63.67V43.137h16.471V59.993z"></path><path d="M86.509,14.058h-2.971v5.376c0,3.59-2.92,6.511-6.51,6.511c-3.589,0-6.51-2.921-6.51-6.511v-5.376H29.481v5.376   c0,3.59-2.921,6.511-6.509,6.511c-3.591,0-6.511-2.921-6.511-6.511v-5.376h-2.97C8.802,14.058,5,17.859,5,22.548v65.661   c0,4.688,3.802,8.489,8.491,8.489h73.018c4.689,0,8.491-3.801,8.491-8.489V22.548C95,17.859,91.198,14.058,86.509,14.058z    M84.526,83.438c0,1.697-1.519,3.07-3.397,3.07H18.87c-1.877,0-3.397-1.373-3.397-3.07V40.906c0-1.699,1.52-3.075,3.397-3.075   h62.26c1.878,0,3.397,1.376,3.397,3.075V83.438z"></path><path d="M22.972,22.548c1.716,0,3.113-1.396,3.113-3.114v-5.376V6.415c0-1.718-1.396-3.113-3.113-3.113   c-1.717,0-3.113,1.394-3.113,3.113v7.643v5.376C19.859,21.152,21.255,22.548,22.972,22.548z"></path><path d="M77.028,22.548c1.717,0,3.113-1.396,3.113-3.114v-5.376V6.415c0-1.718-1.396-3.113-3.113-3.113   c-1.717,0-3.114,1.394-3.114,3.113v7.643v5.376C73.914,21.152,75.311,22.548,77.028,22.548z"></path><rect x="21.425" y="43.137" width="16.472" height="16.856"></rect><rect x="42.162" y="43.137" width="16.471" height="16.856"></rect><rect x="21.425" y="63.855" width="16.472" height="16.856"></rect><rect x="42.162" y="63.855" width="16.471" height="16.856"></rect><rect x="63.67" y="43.137" width="16.471" height="16.856"></rect><rect x="63.67" y="63.855" width="16.471" height="16.856"></rect></g></svg>