<svg fill="#051864" xmlns="http://www.w3.org/2000/svg" xmlns:xlink="http://www.w3.org/1999/xlink" version="1.1" x="0px" y="0px" viewBox="0 0 100 100" enable-background="new 0 0 100 100" xml:space="preserve"><path d="M59,47.508V37.102L90.025,25.82C91.21,25.388,92,24.261,92,23s-0.79-2.388-1.975-2.82l-33-12  C55.031,7.465,53,8.994,53,11v54c0,1.657-1.343,3-3,3s-3-1.343-3-3V47.079C24.907,47.881,8,57.427,8,69.5C8,82.117,26.448,92,50,92  s42-9.883,42-22.5C92,58.545,78.083,49.66,59,47.508z M32,77c-3.309,0-6-2.691-6-6s2.691-6,6-6s6,2.691,6,6S35.309,77,32,77z"></path></svg>