<svg height='100px' width='100px'  fill="#3a178b" xmlns="http://www.w3.org/2000/svg" xmlns:xlink="http://www.w3.org/1999/xlink" version="1.1" x="0px" y="0px" viewBox="0 0 64 64" style="enable-background:new 0 0 64 64;" xml:space="preserve"><path d="M59.171,39c-0.488,0-0.947,0.19-1.293,0.536L56.414,41L55,42.414l-3.5-3.5l1.586-1.586C53.675,36.739,54,35.955,54,35.121  c0-1.681-1.336-3.056-3.002-3.119c-0.061-1.627-1.373-2.939-3-3c-0.061-1.627-1.373-2.939-3-3C44.935,24.336,43.56,23,41.879,23  c-0.834,0-1.618,0.325-2.207,0.914L38.086,25.5l-5.5-5.5L34,18.586l1.464-1.464C35.81,16.776,36,16.317,36,15.829  C36,14.82,35.18,14,34.171,14c-0.488,0-0.947,0.19-1.293,0.536L22.536,24.878C22.19,25.224,22,25.683,22,26.171  C22,27.18,22.82,28,23.829,28c0.488,0,0.947-0.19,1.293-0.536L26.586,26L28,24.586l1.609,1.609l-2.892,7.712  c-0.39,1.04-0.961,1.988-1.7,2.819L21.84,40.3c-0.671-7.529-3.337-12.259-5.935-15.146C18.551,21.377,20,16.808,20,12.19V7h-6  C6.832,7,1,12.832,1,20c0,7.426,1.398,14.688,4.157,21.585l2.228,5.57C9.777,53.135,15.485,57,21.927,57  c4.184,0,8.117-1.629,11.075-4.587l4.522-4.522l4.259-1.217c1.793-0.512,3.438-1.48,4.757-2.799l0.375-0.375l3.5,3.5L49,48.414  l-1.464,1.464C47.19,50.224,47,50.683,47,51.171C47,52.18,47.82,53,48.829,53c0.488,0,0.947-0.19,1.293-0.536l10.343-10.343  C60.81,41.776,61,41.317,61,40.829C61,39.82,60.18,39,59.171,39z M5,20l0.002-0.214l1.999,0.046L7,19.992  c0,0.601,0.01,1.192,0.03,1.783l-1.999,0.066C5.01,21.229,5,20.615,5,20z M5.32,25.906c-0.074-0.674-0.135-1.351-0.183-2.03  l1.995-0.142c0.046,0.653,0.105,1.305,0.176,1.955L5.32,25.906z M7.26,18.107l-1.925-0.542c0.203-0.722,0.497-1.417,0.874-2.067  l1.73,1.003C7.646,17.006,7.417,17.546,7.26,18.107z M22.018,53c-4.889,0-9.138-2.877-10.919-7.33l-0.917-2.291l1.856-0.743  l0.917,2.291C14.432,48.616,17.953,51,21.927,51l0.093,2C22.02,53,22.019,53,22.018,53z M23.099,52.942l-0.197-1.99  c0.615-0.061,1.225-0.181,1.812-0.357l0.573,1.916C24.577,52.723,23.841,52.868,23.099,52.942z M26.381,52.122l-0.763-1.849  c0.634-0.262,1.244-0.595,1.813-0.991l1.143,1.642C27.887,51.401,27.149,51.805,26.381,52.122z"></path></svg>