<svg fill="#051864" xmlns:dc="http://purl.org/dc/elements/1.1/" xmlns:cc="http://creativecommons.org/ns#" xmlns:rdf="http://www.w3.org/1999/02/22-rdf-syntax-ns#" xmlns:svg="http://www.w3.org/2000/svg" xmlns="http://www.w3.org/2000/svg" xmlns:sodipodi="http://sodipodi.sourceforge.net/DTD/sodipodi-0.dtd" xmlns:inkscape="http://www.inkscape.org/namespaces/inkscape" viewBox="0 0 100 100" version="1.1" x="0px" y="0px"><g transform="translate(0,-952.36216)"><path d="m 37.09337,1027.042 4.197471,6.002 1.118765,14.399 4.066944,0 1.493777,-14.4176 3.718876,-5.9834 -1.908122,0 z m 3.540265,1.4753 7.352158,0.029 -2.074831,3.7752 -1.346681,13.0005 -0.192677,0 -1.011034,-13.0191 z" style="color:#000000;font-style:normal;font-variant:normal;font-weight:normal;font-stretch:normal;font-size:medium;line-height:normal;font-family:sans-serif;text-indent:0;text-align:start;text-decoration:none;text-decoration-line:none;text-decoration-style:solid;text-decoration-color:#000000;letter-spacing:normal;word-spacing:normal;text-transform:none;direction:ltr;block-progression:tb;writing-mode:lr-tb;baseline-shift:baseline;text-anchor:start;white-space:normal;clip-rule:nonzero;display:inline;overflow:visible;visibility:visible;opacity:1;isolation:auto;mix-blend-mode:normal;color-interpolation:sRGB;color-interpolation-filters:linearRGB;solid-color:#000000;solid-opacity:1;fill:#051864;fill-opacity:1;fill-rule:evenodd;stroke:none;stroke-width:2;stroke-linecap:butt;stroke-linejoin:miter;stroke-miterlimit:4;stroke-dasharray:none;stroke-dashoffset:0;stroke-opacity:1;color-rendering:auto;image-rendering:auto;shape-rendering:auto;text-rendering:auto;enable-background:accumulate"></path><path d="m 44.390252,1000.4421 c -7.897093,0 -14.320299,6.4253 -14.320299,14.3225 0,7.897 6.423206,14.3223 14.320299,14.3223 7.897083,0 14.322368,-6.4253 14.322368,-14.3223 0,-7.8972 -6.425285,-14.3225 -14.322368,-14.3225 z m 0,2.1216 c 6.750526,0 12.200842,5.4503 12.200842,12.2009 0,6.7504 -5.450316,12.2007 -12.200842,12.2007 -6.750536,0 -12.198773,-5.4503 -12.198773,-12.2007 0,-6.7506 5.448237,-12.2009 12.198773,-12.2009 z" style="color:#000000;font-style:normal;font-variant:normal;font-weight:normal;font-stretch:normal;font-size:medium;line-height:normal;font-family:sans-serif;text-indent:0;text-align:start;text-decoration:none;text-decoration-line:none;text-decoration-style:solid;text-decoration-color:#000000;letter-spacing:normal;word-spacing:normal;text-transform:none;direction:ltr;block-progression:tb;writing-mode:lr-tb;baseline-shift:baseline;text-anchor:start;white-space:normal;clip-rule:nonzero;display:inline;overflow:visible;visibility:visible;opacity:1;isolation:auto;mix-blend-mode:normal;color-interpolation:sRGB;color-interpolation-filters:linearRGB;solid-color:#000000;solid-opacity:1;fill:#051864;fill-opacity:1;fill-rule:nonzero;stroke:none;stroke-width:2;stroke-linecap:butt;stroke-linejoin:miter;stroke-miterlimit:4;stroke-dasharray:none;stroke-dashoffset:0;stroke-opacity:1;color-rendering:auto;image-rendering:auto;shape-rendering:auto;text-rendering:auto;enable-background:accumulate"></path><circle r="1.3055677" cy="1008.438" cx="40.252403" style="opacity:1;fill:#051864;fill-opacity:1;stroke:none;stroke-width:1;stroke-linecap:butt;stroke-linejoin:miter;stroke-miterlimit:4;stroke-dasharray:none;stroke-dashoffset:0;stroke-opacity:1"></circle><circle style="opacity:1;fill:#051864;fill-opacity:1;stroke:none;stroke-width:1;stroke-linecap:butt;stroke-linejoin:miter;stroke-miterlimit:4;stroke-dasharray:none;stroke-dashoffset:0;stroke-opacity:1" cx="48.530201" cy="1008.438" r="1.3055677"></circle><circle style="opacity:1;fill:#051864;fill-opacity:1;stroke:none;stroke-width:1;stroke-linecap:butt;stroke-linejoin:miter;stroke-miterlimit:4;stroke-dasharray:none;stroke-dashoffset:0;stroke-opacity:1" cx="44.3913" cy="1005.33" r="1.3055677"></circle><circle r="1.3055677" cy="1011.546" cx="52.669113" style="opacity:1;fill:#051864;fill-opacity:1;stroke:none;stroke-width:1;stroke-linecap:butt;stroke-linejoin:miter;stroke-miterlimit:4;stroke-dasharray:none;stroke-dashoffset:0;stroke-opacity:1"></circle><circle style="opacity:1;fill:#051864;fill-opacity:1;stroke:none;stroke-width:1;stroke-linecap:butt;stroke-linejoin:miter;stroke-miterlimit:4;stroke-dasharray:none;stroke-dashoffset:0;stroke-opacity:1" cx="44.3913" cy="1011.546" r="1.3055677"></circle><circle style="opacity:1;fill:#051864;fill-opacity:1;stroke:none;stroke-width:1;stroke-linecap:butt;stroke-linejoin:miter;stroke-miterlimit:4;stroke-dasharray:none;stroke-dashoffset:0;stroke-opacity:1" cx="36.113487" cy="1011.546" r="1.3055677"></circle><circle r="1.3055677" cy="1014.6541" cx="48.530201" style="opacity:1;fill:#051864;fill-opacity:1;stroke:none;stroke-width:1;stroke-linecap:butt;stroke-linejoin:miter;stroke-miterlimit:4;stroke-dasharray:none;stroke-dashoffset:0;stroke-opacity:1"></circle><circle style="opacity:1;fill:#051864;fill-opacity:1;stroke:none;stroke-width:1;stroke-linecap:butt;stroke-linejoin:miter;stroke-miterlimit:4;stroke-dasharray:none;stroke-dashoffset:0;stroke-opacity:1" cx="56.808014" cy="1014.6541" r="1.3055677"></circle><circle style="opacity:1;fill:#051864;fill-opacity:1;stroke:none;stroke-width:1;stroke-linecap:butt;stroke-linejoin:miter;stroke-miterlimit:4;stroke-dasharray:none;stroke-dashoffset:0;stroke-opacity:1" cx="40.252403" cy="1014.6541" r="1.3055677"></circle><circle r="1.3055677" cy="1014.6541" cx="31.97459" style="opacity:1;fill:#051864;fill-opacity:1;stroke:none;stroke-width:1;stroke-linecap:butt;stroke-linejoin:miter;stroke-miterlimit:4;stroke-dasharray:none;stroke-dashoffset:0;stroke-opacity:1"></circle><circle style="opacity:1;fill:#051864;fill-opacity:1;stroke:none;stroke-width:1;stroke-linecap:butt;stroke-linejoin:miter;stroke-miterlimit:4;stroke-dasharray:none;stroke-dashoffset:0;stroke-opacity:1" cx="52.669113" cy="1017.762" r="1.3055677"></circle><circle r="1.3055677" cy="1017.762" cx="44.3913" style="opacity:1;fill:#051864;fill-opacity:1;stroke:none;stroke-width:1;stroke-linecap:butt;stroke-linejoin:miter;stroke-miterlimit:4;stroke-dasharray:none;stroke-dashoffset:0;stroke-opacity:1"></circle><circle r="1.3055677" cy="1017.762" cx="36.113487" style="opacity:1;fill:#051864;fill-opacity:1;stroke:none;stroke-width:1;stroke-linecap:butt;stroke-linejoin:miter;stroke-miterlimit:4;stroke-dasharray:none;stroke-dashoffset:0;stroke-opacity:1"></circle><circle style="opacity:1;fill:#051864;fill-opacity:1;stroke:none;stroke-width:1;stroke-linecap:butt;stroke-linejoin:miter;stroke-miterlimit:4;stroke-dasharray:none;stroke-dashoffset:0;stroke-opacity:1" cx="40.252403" cy="1020.8701" r="1.3055677"></circle><circle r="1.3055677" cy="1020.8701" cx="48.530201" style="opacity:1;fill:#051864;fill-opacity:1;stroke:none;stroke-width:1;stroke-linecap:butt;stroke-linejoin:miter;stroke-miterlimit:4;stroke-dasharray:none;stroke-dashoffset:0;stroke-opacity:1"></circle><circle r="1.3055677" cy="1023.9781" cx="44.3913" style="opacity:1;fill:#051864;fill-opacity:1;stroke:none;stroke-width:1;stroke-linecap:butt;stroke-linejoin:miter;stroke-miterlimit:4;stroke-dasharray:none;stroke-dashoffset:0;stroke-opacity:1"></circle><circle style="opacity:1;fill:#051864;fill-opacity:1;stroke:none;stroke-width:1;stroke-linecap:butt;stroke-linejoin:miter;stroke-miterlimit:4;stroke-dasharray:none;stroke-dashoffset:0;stroke-opacity:1" cx="36.113487" cy="1023.9781" r="1.3055677"></circle><circle r="1.3055677" cy="1023.9781" cx="52.669113" style="opacity:1;fill:#051864;fill-opacity:1;stroke:none;stroke-width:1;stroke-linecap:butt;stroke-linejoin:miter;stroke-miterlimit:4;stroke-dasharray:none;stroke-dashoffset:0;stroke-opacity:1"></circle><circle style="opacity:1;fill:#051864;fill-opacity:1;stroke:none;stroke-width:1;stroke-linecap:butt;stroke-linejoin:miter;stroke-miterlimit:4;stroke-dasharray:none;stroke-dashoffset:0;stroke-opacity:1" cx="52.669113" cy="1005.33" r="1.3055677"></circle><circle r="1.3055677" cy="1005.33" cx="36.113487" style="opacity:1;fill:#051864;fill-opacity:1;stroke:none;stroke-width:1;stroke-linecap:butt;stroke-linejoin:miter;stroke-miterlimit:4;stroke-dasharray:none;stroke-dashoffset:0;stroke-opacity:1"></circle><path style="" d="m 87.459,957.28128 c 0,0 -22.54171,36.35623 -27.99024,39.37503 -0.78023,0.3555 -1.38353,0.066 -5.53906,-2.6562 -9.07938,-5.94733 -32.46374,-15.47823 -37.99023,-15.48443 -5.13962,-0.01 -8.03736,3.4116 -10.09961,11.91413 -1.46658,6.0464 -0.97931,12.89239 1.20312,16.90229 2.53107,4.6504 6.70033,6.4697 16.625,7.2578 1.77515,0.141 4.8451,0.1746 8.09375,0.1641 -0.0293,-0.3365 -0.0449,-0.674 -0.0469,-1.0117 -3.8e-4,-6.9048 5.59715,-12.5023 12.50195,-12.502 6.12048,0 11.3388,4.4369 12.33008,10.4766 0.84155,-0.2993 1.56305,-0.597 2.0957,-0.8809 2.52785,-1.3473 3.7594,-2.8025 4.13086,-4.8847 0.3398,-1.9048 0.69233,-2.2917 3.02734,-3.3243 1.87039,-0.8272 2.09732,-1.0977 6.22266,-7.40028 9.01978,-13.66274 14.66766,-25.26724 22.97656,-37.94543 z" fill="#051864" stroke="none"></path></g></svg>