<svg fill="#051864" xmlns="http://www.w3.org/2000/svg" xmlns:xlink="http://www.w3.org/1999/xlink" version="1.1" x="0px" y="0px" viewBox="0 0 125 125" style="enable-background:new 0 0 125 125;" xml:space="preserve"><path d="M62.5,19.5c-23.7,0-43,19.3-43,43s19.3,43,43,43s43-19.3,43-43S86.2,19.5,62.5,19.5z M78.8,74.5c1.1,1.2,1.1,3.1,0,4.2  c-0.5,0.6-1.3,0.9-2.1,0.9s-1.5-0.3-2.1-0.9l-12-12l-12,12c-0.5,0.6-1.3,0.9-2.1,0.9c-1.7,0-3-1.3-3-3c0-0.8,0.3-1.5,0.9-2.1l12-12  l-12-12c-1.2-1.2-1.1-3.1,0.1-4.2c1.2-1.1,2.9-1.1,4.1,0l12,12l12-12c1.2-1.2,3.1-1.1,4.2,0.1c1.1,1.2,1.1,2.9,0,4.1l-12,12  L78.8,74.5z"></path></svg>