<svg fill="#051864" xmlns="http://www.w3.org/2000/svg" viewBox="0 0 32 32" x="0px" y="0px"><title>80-setting</title><g data-name="80-setting"><path d="M10,10a4,4,0,1,1,4-4A4,4,0,0,1,10,10Zm0-6a2,2,0,1,0,2,2A2,2,0,0,0,10,4Z"></path><path d="M22,20a4,4,0,1,1,4-4A4,4,0,0,1,22,20Zm0-6a2,2,0,1,0,2,2A2,2,0,0,0,22,14Z"></path><path d="M10,30a4,4,0,1,1,4-4A4,4,0,0,1,10,30Zm0-6a2,2,0,1,0,2,2A2,2,0,0,0,10,24Z"></path><path d="M7,7H1A1,1,0,0,1,1,5H7A1,1,0,0,1,7,7Z"></path><path d="M15,17H1a1,1,0,0,1,0-2H15a1,1,0,0,1,0,2Z"></path><path d="M7,27H1a1,1,0,0,1,0-2H7a1,1,0,0,1,0,2Z"></path><path d="M31,27H17a1,1,0,0,1,0-2H31a1,1,0,0,1,0,2Z"></path><path d="M31,17H25a1,1,0,0,1,0-2h6a1,1,0,0,1,0,2Z"></path><path d="M31,7H17a1,1,0,0,1,0-2H31a1,1,0,0,1,0,2Z"></path></g></svg>