<svg height='100px' width='100px'  fill="#fea002" xmlns="http://www.w3.org/2000/svg" xmlns:xlink="http://www.w3.org/1999/xlink" version="1.1" x="0px" y="0px" viewBox="0 0 30 30" style="enable-background:new 0 0 30 30;" xml:space="preserve"><g><g><path d="M27.232,14.587L15,3.883L2.768,14.587c-0.695,0.607-1.749,0.538-2.354-0.157l0,0c-0.607-0.691-0.538-1.745,0.157-2.352    l0,0l13.33-11.666c0.628-0.55,1.566-0.547,2.197,0l0,0L29.43,12.078c0.694,0.607,0.764,1.661,0.158,2.352l0,0    C29.258,14.808,28.793,15,28.33,15l0,0C27.94,15,27.548,14.864,27.232,14.587L27.232,14.587z"></path></g><g><path d="M15.001,5.455L4.091,15v12.273C4.091,28.65,5.383,30,6.819,30h4.773v-6.818c0-0.754,0.61-1.364,1.363-1.364h4.091    c0.753,0,1.363,0.61,1.363,1.364V30h4.416c1.435,0,3.084-1.35,3.084-2.727V15L15.001,5.455z"></path></g></g></svg>