<svg fill="#002557" xmlns="http://www.w3.org/2000/svg" xmlns:xlink="http://www.w3.org/1999/xlink" xml:space="preserve" version="1.1" style="shape-rendering:geometricPrecision;text-rendering:geometricPrecision;image-rendering:optimizeQuality;" viewBox="0 0 259 236" x="0px" y="0px" fill-rule="evenodd" clip-rule="evenodd"><defs><style type="text/css">
   
    .fil0 {fill:#002557}
   
  </style></defs><g><path class="fil0" d="M127 1l-126 113c-2,3 -1,7 3,7l25 0 0 108c0,4 4,7 7,7l59 0c3,0 6,-3 6,-6l0 -49c0,-35 58,-35 58,0l0 49c0,3 2,6 6,6l58 0c4,0 7,-3 7,-7l0 -108 26 0c3,0 5,-4 2,-7l-126 -113c-1,-1 -3,-1 -5,0z"></path></g></svg>