<svg height='100px' width='100px'  fill="#fea002" xmlns="http://www.w3.org/2000/svg" data-name="Layer 1" viewBox="0 0 100 100" x="0px" y="0px"><title>Artboard 5</title><path d="M22.64,45.55h2.43A27.4,27.4,0,0,0,44.23,61v9H37.52a3.75,3.75,0,0,0-3.75,3.75v4.92H30.42A2.39,2.39,0,0,0,28,81.11V93.9a2.39,2.39,0,0,0,2.39,2.39H69.57A2.39,2.39,0,0,0,72,93.9V81.11a2.39,2.39,0,0,0-2.39-2.39H66.23V73.8a3.75,3.75,0,0,0-3.75-3.75H55.77V61A27.4,27.4,0,0,0,74.93,45.55h2.43A18.71,18.71,0,0,0,96.07,26.83V15.46a3,3,0,0,0-3-3H77.36V6.71a3,3,0,0,0-3-3H25.63a3,3,0,0,0-3,3v5.76H6.92a3,3,0,0,0-3,3V26.83A18.71,18.71,0,0,0,22.64,45.55ZM77.36,34.28V21.94H86.6v4.89a9.25,9.25,0,0,1-9.24,9.24h-.06C77.33,35.48,77.36,34.88,77.36,34.28ZM38.3,25.92l6.75-1a1.17,1.17,0,0,0,.88-.64l3-6.11a1.17,1.17,0,0,1,2.1,0l3,6.11a1.17,1.17,0,0,0,.88.64l6.75,1a1.17,1.17,0,0,1,.65,2l-4.88,4.76a1.17,1.17,0,0,0-.34,1l1.15,6.72a1.17,1.17,0,0,1-1.7,1.23l-6-3.17a1.17,1.17,0,0,0-1.09,0l-6,3.17a1.17,1.17,0,0,1-1.7-1.23l1.15-6.72a1.17,1.17,0,0,0-.34-1l-4.88-4.76A1.17,1.17,0,0,1,38.3,25.92Zm-24.9-4h9.24V34.28c0,.6,0,1.2.06,1.79h-.06a9.25,9.25,0,0,1-9.24-9.24Z"></path></svg>