<svg height='100px' width='100px'  fill="#3a178b" xmlns="http://www.w3.org/2000/svg" xmlns:xlink="http://www.w3.org/1999/xlink" version="1.1" x="0px" y="0px" viewBox="-91 92.5 100 100" style="enable-background:new -91 92.5 100 100;" xml:space="preserve"><path d="M-0.6,98L-83,130.2c-3.7,1.5-4,4.4-0.6,6.5l19.4,12.1c3.4,2.1,8.7,1.8,11.8-0.8l26.4-21.6c1.6-1.3,2.5-1.8,2.6-1.6l-26,26  c-2.8,2.8-5.1,8.4-5.1,12.4v8.6c0,4,1.9,4.6,4.3,1.4l4.1-5.6l10.9,17.5c2.1,3.4,5,3.1,6.5-0.6l32.3-82.4C5,98.4,3.1,96.5-0.6,98z"></path></svg>