<svg fill="#051864" xmlns="http://www.w3.org/2000/svg" xmlns:xlink="http://www.w3.org/1999/xlink" version="1.1" x="0px" y="0px" viewBox="0 0 66 66" enable-background="new 0 0 66 66" xml:space="preserve"><g><path d="M43.869,44.948c0,1.09,0.79,1.43,1.91,1.79v-3.43C44.769,43.398,43.869,43.928,43.869,44.948z"></path><path d="M47.049,49.528v3.57c1.07-0.11,2.07-0.64,2.07-1.71C49.119,50.238,48.239,49.878,47.049,49.528z"></path><path d="M46.219,35.558c-7.09,0-12.86,5.77-12.86,12.86c0,7.09,5.77,12.86,12.86,12.86c7.09,0,12.86-5.77,12.86-12.86   C59.079,41.328,53.309,35.558,46.219,35.558z M47.049,55.228v1.43h-1.27v-1.45c-1.82-0.19-3.44-0.91-4.89-2.17l1.45-1.73   c1.11,0.97,2.26,1.55,3.44,1.73v-3.85c-2.6-0.62-4.33-1.47-4.33-4.01c0-2.42,1.89-3.87,4.33-4v-0.99h1.27v1.01   c1.46,0.11,2.83,0.6,4.13,1.49l-1.29,1.83c-0.87-0.62-1.82-1.01-2.84-1.15v3.73h0.06c2.55,0.6,4.43,1.49,4.43,4.1   C51.539,53.678,49.569,55.098,47.049,55.228z"></path><path d="M2.729,39.468l-1.65,8.85c-0.47,2.54,1.22,5,3.76,5.48l8.84,1.63c1.566,0.296,3.143,0.487,4.722,0.599L3.865,34.845   C3.408,36.355,3.022,37.895,2.729,39.468z"></path><path d="M61.159,7.078l-8.84-1.64c-1.552-0.289-3.107-0.483-4.659-0.6l14.491,21.117c0.452-1.493,0.834-3.009,1.118-4.547   l1.65-8.84c0.05-0.29,0.08-0.58,0.08-0.87C64.999,9.478,63.419,7.508,61.159,7.078z"></path><path d="M20.479,12.188c-7.35,5.04-12.8,12.09-15.82,20.29l16.24,23.66c0.2,0,0.4,0.01,0.6,0.01c3.79,0,7.58-0.51,11.23-1.51   c-0.88-1.89-1.37-4-1.37-6.22c0-8.19,6.67-14.86,14.86-14.86c4,0,7.62,1.59,10.29,4.16c1.99-2.91,3.62-6.07,4.85-9.39l-16.2-23.6   C36.399,4.578,27.839,7.128,20.479,12.188z M43.649,30.018c-0.45,0.32-1.08,0.19-1.39-0.26l-2.08-3.04l-3.31,2.28l2.08,3.03   c0.32,0.46,0.2,1.08-0.26,1.39c-0.45,0.32-1.08,0.2-1.38-0.25l-2.09-3.04l-3.31,2.27l2.08,3.04c0.32,0.45,0.2,1.07-0.25,1.39   c-0.46,0.31-1.08,0.19-1.39-0.26l-2.09-3.04l-3.31,2.27l2.09,3.04c0.31,0.45,0.19,1.08-0.26,1.39c-0.46,0.31-1.08,0.19-1.39-0.26   l-2.09-3.04l-1.78,1.23c-0.18,0.12-0.37,0.18-0.57,0.18c-0.32,0-0.63-0.16-0.82-0.44c-0.32-0.45-0.2-1.08,0.25-1.39l1.79-1.22   l-2.43-3.55c-0.32-0.46-0.2-1.08,0.25-1.39c0.46-0.32,1.08-0.2,1.39,0.25l2.44,3.55l3.31-2.27l-2.44-3.55   c-0.31-0.45-0.19-1.08,0.26-1.39c0.46-0.31,1.08-0.19,1.39,0.26l2.44,3.55l3.31-2.27l-2.44-3.55c-0.31-0.46-0.19-1.08,0.26-1.39   c0.46-0.31,1.08-0.2,1.39,0.26l2.44,3.55l3.31-2.27l-2.44-3.55c-0.31-0.46-0.19-1.08,0.26-1.39c0.46-0.32,1.08-0.2,1.39,0.26   l2.44,3.54l1.78-1.22c0.46-0.31,1.08-0.2,1.39,0.26c0.32,0.45,0.2,1.07-0.25,1.39l-1.79,1.22l2.08,3.04   C44.219,29.088,44.109,29.708,43.649,30.018z"></path></g></svg>