<svg xmlns="http://www.w3.org/2000/svg" xmlns:xlink="http://www.w3.org/1999/xlink" width="100" height="100" viewBox="0 0 100 100"><g><g transform="translate(50 50) scale(-0.69 0.69) rotate(0) translate(-50 -50)" style="fill:#051864"><svg fill="#051864" xmlns="http://www.w3.org/2000/svg" viewBox="0 0 68 37" x="0px" y="0px"><path fill="#051864" d="M297.278389,332.342173 C299.847224,328.416988 304.219197,326 309,326 L331,326 L331,342 L313.487883,342 C313.819537,341.061663 314,340.051906 314,339 C314,334.029437 309.970563,330 305,330 C301.686728,330 298.791623,331.79039 297.229381,334.456475 C296.865789,333.852517 296.807985,333.060951 297.278389,332.342173 Z M355,340 C355,335.029437 350.970563,331 346,331 C341.029437,331 337,335.029437 337,340 C337,340.343497 337.019243,340.6825 337.056711,341.015989 L333,342 L333,326 L342,326 L342,325 C342,323.895431 342.895431,323 344,323 C345.104569,323 346,323.895431 346,325 L346,326 L346.559693,326 C353.623031,326 359.852044,330.62228 361.901303,337.377738 C361.928817,337.46186 361.950904,337.548439 361.96715,337.637059 C361.994799,337.784705 362.005255,337.93151 362,338.075479 L362,341 C363.104569,341 364,341.895431 364,343 C364,344.104569 363.104569,345 362,345 L358,345 C356.895431,345 356,344.104569 356,343 C356,341.895431 356.895431,341 358,341 L358,340 L355,340 Z M322,316 C322,314.895431 322.895431,314 324,314 C325.104569,314 326,314.895431 326,316 L326,317 L327,317 C328.104569,317 329,317.895431 329,319 L329,324 L309,324 C304.660507,324 300.581965,325.747841 297.610664,328.760633 C298.122165,327.22118 298.938979,325.80917 300,324.605615 L300,319.236068 L298.894427,319.788854 C297.564625,320.453755 296,319.486764 296,318 L296,312 C296,310.895431 296.895431,310 298,310 L306,310 C307.104569,310 308,310.895431 308,312 L308,314 C308,314.757544 307.571995,315.45007 306.894427,315.788854 L304,317.236068 L304,321.633567 C304.544865,321.384126 305.113623,321.173219 305.703346,321.004727 L318.911893,317.230856 C319.447942,317.0777 320.002721,317 320.56022,317 L322,317 L322,316 Z M305,346 C301.134007,346 298,342.865993 298,339 C298,335.134007 301.134007,332 305,332 C308.865993,332 312,335.134007 312,339 C312,342.865993 308.865993,346 305,346 Z M305,342 C306.656854,342 308,340.656854 308,339 C308,337.343146 306.656854,336 305,336 C303.343146,336 302,337.343146 302,339 C302,340.656854 303.343146,342 305,342 Z M346,347 C342.134007,347 339,343.865993 339,340 C339,336.134007 342.134007,333 346,333 C349.865993,333 353,336.134007 353,340 C353,343.865993 349.865993,347 346,347 Z M346,343 C347.656854,343 349,341.656854 349,340 C349,338.343146 347.656854,337 346,337 C344.343146,337 343,338.343146 343,340 C343,341.656854 344.343146,343 346,343 Z" transform="translate(-296 -310)"></path></svg></g></g></svg>