<svg fill="#051864" xmlns="http://www.w3.org/2000/svg" xmlns:xlink="http://www.w3.org/1999/xlink" xml:space="preserve" version="1.1" style="shape-rendering:geometricPrecision;text-rendering:geometricPrecision;image-rendering:optimizeQuality;" viewBox="0 0 326 192" x="0px" y="0px" fill-rule="evenodd" clip-rule="evenodd"><defs><style type="text/css">
   
    .fil1 {fill:#051864}
    .fil0 {fill:#051864;fill-rule:nonzero}
   
  </style></defs><g><path class="fil0" d="M217 16l-2 4c26,-4 52,15 59,27 9,20 31,34 52,26l-35 67c-24,10 -40,-9 -53,-27 -12,-18 -36,-29 -58,-25l-10 20 -6 -10 45 -86 8 4zm98 75c-5,2 -10,2 -16,1l0 0 -8 17c5,1 11,0 15,-1l9 -17zm-16 30c-4,2 -9,2 -15,1l-8 17c5,1 10,0 15,-2l8 -16zm-86 -97l-7 13c6,-1 11,-1 16,0l7 -13c-6,0 -11,-1 -16,0zm-15 30l-7 13c5,-1 11,-1 16,0l7 -13c-6,-1 -11,-1 -16,0zm9 13l-8 16c5,1 10,3 15,5l8 -16c5,2 10,5 14,8l6 -14c-4,-2 -8,-5 -13,-7l8 -17c-5,-2 -10,-4 -15,-5l-8 17c5,1 10,3 15,5l-7 13c-5,-2 -10,-4 -15,-5zm29 13l-8 16c5,3 9,7 11,11l8 -16c1,1 2,2 2,3 2,5 5,9 8,12l7 -13 0 0c-3,-4 -6,-7 -8,-12 0,-1 -1,-2 -2,-3l-7 13c-2,-4 -6,-8 -11,-11zm18 -2l9 -17c1,1 1,2 2,3 2,5 5,9 7,12l7 -13c-4,-5 -7,-10 -10,-15l-6 13c-3,-4 -7,-8 -12,-11l-9 16c5,4 9,8 12,12zm3 28l-8 16c4,4 8,8 12,11l8 -17c5,3 10,5 15,6l7 -13c-5,-1 -10,-3 -15,-6l-7 13c-4,-2 -8,-6 -12,-10zm19 -3l9 -17c-5,-2 -9,-6 -13,-10l-8 17 0 0c4,4 8,7 12,10zm-39 -61c5,2 10,5 14,8l6 -13c-4,-3 -8,-6 -13,-8l-7 13zm48 44c4,3 9,5 14,6l7 -13c-5,-1 -10,-3 -15,-6l-6 13z"></path><polygon class="fil0" points="162,122 126,192 117,188 157,112 "></polygon><path class="fil1" d="M220 1c3,1 4,5 3,8 -1,2 -2,3 -4,4l-8 -5c-1,-1 -1,-3 0,-4 2,-4 6,-5 9,-3z"></path><path class="fil0" d="M109 16l2 4c-25,-4 -52,15 -58,28 -10,20 -31,33 -53,25l35 67c25,10 40,-9 54,-27 11,-18 35,-28 57,-25l55 104 8 -4 -92 -176 -8 4zm-98 75c5,2 11,2 16,1l0 0 9 17c-6,1 -11,1 -16,-1l-9 -17zm16 30c5,2 10,2 15,1l9 17c-6,1 -11,0 -16,-2l-8 -16zm86 -97l7 13c-5,-1 -11,-1 -16,0l-6 -12c5,-1 10,-1 15,-1zm16 30l7 13c-6,-1 -11,-1 -17,0l-6 -13c5,-1 10,-1 16,0zm-10 13l8 16c-5,1 -10,3 -14,5l-8 -16c-5,2 -10,5 -14,8l-7 -13c4,-3 9,-6 14,-8l-9 -17c5,-2 10,-4 15,-5l9 17c-5,1 -10,3 -15,5l7 13c4,-2 9,-4 14,-5zm-28 13l8 16c-5,3 -9,7 -12,11l-8 -16c-1,1 -1,2 -2,4 -2,4 -5,8 -8,11l-7 -13 0 0c3,-3 6,-7 8,-12 1,-1 2,-2 2,-3l7 13c3,-4 7,-7 12,-11zm-19 -2l-8 -17c-1,1 -2,2 -3,4 -2,4 -4,8 -7,11l-7 -13c5,-5 7,-9 10,-15l7 13c3,-4 7,-8 12,-11l8 17c-5,3 -9,7 -12,11zm-3 28l8 16c-4,4 -8,8 -12,11l-8 -16c-5,2 -10,4 -15,5l-6 -13c5,-1 10,-3 14,-6l7 14c4,-3 9,-7 12,-11zm-19 -3l-8 -17c4,-2 8,-6 12,-10l8 17 0 0c-3,4 -7,8 -12,10zm39 -61c-5,2 -9,5 -13,8l-7 -13c4,-3 9,-6 14,-8l6 13zm-47 44c-5,3 -10,5 -15,6l-6 -13c5,0 10,-3 14,-5l7 12z"></path><path class="fil1" d="M106 1c-3,2 -4,5 -2,9 1,1 2,2 3,3l9 -4c0,-2 0,-4 -1,-5 -1,-4 -5,-5 -9,-3z"></path></g></svg>